<?xml version="1.0" standalone="no"?>
<!DOCTYPE svg PUBLIC "-//W3C//DTD SVG 20010904//EN"
 "http://www.w3.org/TR/2001/REC-SVG-20010904/DTD/svg10.dtd">
<svg version="1.0" xmlns="http://www.w3.org/2000/svg"
 width="861.000000pt" height="861.000000pt" viewBox="0 0 861.000000 861.000000"
 preserveAspectRatio="xMidYMid meet">
<metadata>
Created by potrace 1.11, written by Peter Selinger 2001-2013
</metadata>
<g transform="translate(0.000000,861.000000) scale(0.100000,-0.100000)"
fill="#000000" stroke="none">
<path d="M3785 8586 c-28 -7 -64 -19 -80 -29 -17 -9 -88 -28 -159 -42 -257
-52 -399 -128 -591 -316 -82 -80 -132 -142 -208 -258 -23 -36 -54 -82 -68
-104 -15 -22 -35 -67 -45 -101 -10 -33 -34 -88 -52 -121 -87 -155 -117 -304
-117 -585 0 -156 6 -241 24 -360 6 -36 13 -83 16 -105 4 -22 11 -60 17 -85 5
-25 12 -56 14 -70 3 -14 11 -52 20 -84 8 -32 12 -61 10 -64 -3 -2 -22 12 -43
33 -50 50 -71 62 -115 69 -49 8 -81 -5 -108 -45 -21 -29 -24 -48 -32 -213 -4
-99 -9 -190 -10 -201 -2 -19 10 -143 17 -175 2 -8 6 -33 10 -55 8 -53 63 -262
78 -300 6 -16 12 -32 12 -35 1 -16 42 -111 63 -145 59 -93 164 -134 246 -94
41 20 43 19 50 -46 2 -22 9 -60 15 -85 5 -25 12 -56 15 -70 25 -130 84 -298
137 -385 19 -31 74 -98 123 -147 l88 -91 -6 -94 c-6 -90 -8 -96 -37 -120 -46
-39 -113 -140 -143 -215 -27 -68 -56 -172 -59 -209 -1 -12 -14 -27 -29 -35
-80 -41 -305 -105 -418 -119 -64 -8 -117 -42 -126 -83 -14 -56 -53 -120 -88
-140 -19 -11 -67 -32 -106 -46 -71 -26 -152 -59 -181 -75 -8 -5 -40 -21 -70
-37 -30 -15 -114 -65 -187 -111 -149 -94 -295 -173 -362 -198 -204 -75 -236
-91 -295 -152 -70 -72 -148 -279 -179 -473 -7 -42 -14 -83 -22 -130 -4 -19 -8
-44 -9 -55 -2 -11 -6 -39 -9 -62 -11 -81 -25 -205 -31 -273 -2 -30 -6 -86 -10
-125 -16 -209 -24 -377 -41 -905 -11 -359 -11 -424 -1 -438 7 -9 13 -9 23 -1
8 6 12 15 9 19 -17 27 202 19 397 -14 81 -14 205 -29 275 -33 236 -15 1194 -7
1533 12 36 2 121 6 190 10 69 3 154 8 190 10 36 3 108 7 160 11 52 3 120 7
150 9 150 10 460 44 473 52 4 2 14 -3 23 -11 17 -17 34 -13 34 8 0 9 19 17 48
21 26 5 54 10 62 12 45 11 345 3 431 -12 13 -2 44 -6 69 -9 25 -3 61 -8 80
-11 19 -2 55 -7 80 -10 25 -3 74 -10 110 -15 36 -5 90 -12 120 -15 30 -3 62
-8 70 -10 8 -2 58 -7 110 -10 52 -4 111 -9 130 -10 19 -2 341 -4 714 -5 374 0
698 -5 720 -10 96 -20 381 -28 566 -15 117 8 226 16 258 19 17 2 32 0 32 -5 0
-5 9 -9 20 -9 19 0 20 6 15 278 -3 152 -7 309 -9 347 -3 39 -8 156 -11 260 -4
105 -9 217 -11 250 -3 64 -13 348 -15 480 -1 44 -9 103 -17 130 -19 62 -17 49
-26 125 -4 36 -9 72 -11 80 -1 8 -6 33 -9 55 -56 349 -135 515 -283 592 -32
17 -94 43 -138 58 -44 15 -184 78 -311 140 -218 107 -355 169 -469 213 -41 15
-54 26 -70 61 -29 58 -40 66 -125 95 -69 23 -76 28 -92 65 -22 53 -54 69 -172
86 -97 14 -308 85 -418 141 -51 25 -59 34 -68 69 -19 72 -33 96 -76 137 -23
22 -45 51 -48 64 -5 18 -12 24 -26 22 -15 -2 -127 73 -174 117 -6 6 -29 24
-52 40 -34 25 -41 36 -41 65 0 28 10 46 54 93 155 170 301 474 346 727 3 14 8
41 12 60 13 69 13 75 14 101 l1 27 38 -19 c46 -24 109 -18 167 16 50 30 72 55
100 119 70 159 130 558 104 686 -4 19 -9 100 -11 180 -3 121 -7 150 -23 177
-43 73 -137 73 -215 1 -14 -13 -35 -31 -46 -40 l-20 -18 17 98 c10 54 20 120
23 147 3 28 11 75 16 105 5 30 12 71 16 90 3 19 7 123 9 231 5 217 9 191 -82
494 -58 192 -104 319 -156 425 -33 67 -62 106 -142 189 -219 229 -223 232
-345 295 -63 32 -126 66 -140 76 -92 64 -279 146 -353 156 -15 2 -44 5 -65 8
-20 3 -71 8 -112 11 -93 7 -179 16 -205 22 -46 12 -292 11 -340 -1z m-690
-4565 c3 -5 -9 -20 -27 -33 l-33 -23 25 32 c29 37 27 36 35 24z m2193 -101
c39 -30 71 -58 72 -62 0 -10 -94 48 -110 67 -7 8 -17 15 -22 15 -16 0 -88 63
-88 78 0 14 9 8 148 -98z m-2325 -105 c-3 -9 -8 -14 -10 -11 -3 3 -2 9 2 15 9
16 15 13 8 -4z m-19 -59 c-3 -15 -8 -25 -11 -23 -2 3 -1 17 3 31 3 15 8 25 11
23 2 -3 1 -17 -3 -31z m-17 -58 c-3 -8 -6 -5 -6 6 -1 11 2 17 5 13 3 -3 4 -12
1 -19z m-127 -162 c0 -5 -121 -46 -134 -45 -13 0 103 46 122 48 6 0 12 -1 12
-3z m2985 -36 c97 -34 179 -56 264 -69 60 -10 119 -36 107 -48 -3 -3 -13 0
-21 7 -10 8 -53 14 -119 16 -135 3 -172 14 -270 81 -44 31 -72 52 -61 48 11
-4 56 -20 100 -35z m-3155 -20 c-8 -5 -24 -9 -35 -9 -16 1 -16 2 5 9 35 11 48
11 30 0z m-105 -19 c-6 -6 -23 -12 -40 -15 -73 -14 -86 -17 -111 -26 -15 -6
-29 -9 -31 -7 -7 7 57 30 120 42 34 7 64 13 67 14 2 0 0 -3 -5 -8z m42 3 c-3
-3 -12 -4 -19 -1 -8 3 -5 6 6 6 11 1 17 -2 13 -5z m-377 -268 c-16 -15 -158
-66 -182 -65 -13 0 168 76 187 78 5 1 3 -5 -5 -13z m-451 -212 c-15 -19 -69
-47 -69 -37 0 7 67 51 79 53 2 0 -2 -7 -10 -16z m5201 -70 c0 -3 -3 -3 -7 -1
-5 3 -29 14 -55 26 -26 11 -49 25 -52 30 -3 5 21 -5 54 -21 33 -16 60 -31 60
-34z m55 -24 c3 -5 2 -10 -4 -10 -5 0 -13 5 -16 10 -3 6 -2 10 4 10 5 0 13 -4
16 -10z m358 -153 c70 -32 136 -87 159 -131 8 -16 4 -14 -18 8 -42 42 -122 99
-179 129 -71 37 -47 33 38 -6z m-6238 -67 c-3 -5 -11 -10 -16 -10 -6 0 -7 5
-4 10 3 6 11 10 16 10 6 0 7 -4 4 -10z"/>
</g>
</svg>
